<svg id="visual" viewBox="0 0 900 600" width="900" height="600" xmlns="http://www.w3.org/2000/svg" xmlns:xlink="http://www.w3.org/1999/xlink" version="1.1"><rect x="0" y="0" width="900" height="600" fill="#ee9349"></rect><path d="M597 600L516 600L516 514L524 514L524 429L595 429L595 343L591 343L591 257L596 257L596 171L568 171L568 86L531 86L531 0L900 0L900 86L900 86L900 171L900 171L900 257L900 257L900 343L900 343L900 429L900 429L900 514L900 514L900 600L900 600Z" fill="#2f2f2f"></path><path d="M592 600L650 600L650 514L624 514L624 429L653 429L653 343L627 343L627 257L593 257L593 171L628 171L628 86L589 86L589 0L900 0L900 86L900 86L900 171L900 171L900 257L900 257L900 343L900 343L900 429L900 429L900 514L900 514L900 600L900 600Z" fill="#292929"></path><path d="M678 600L658 600L658 514L663 514L663 429L675 429L675 343L688 343L688 257L687 257L687 171L660 171L660 86L717 86L717 0L900 0L900 86L900 86L900 171L900 171L900 257L900 257L900 343L900 343L900 429L900 429L900 514L900 514L900 600L900 600Z" fill="#242424"></path><path d="M729 600L730 600L730 514L748 514L748 429L734 429L734 343L790 343L790 257L774 257L774 171L740 171L740 86L785 86L785 0L900 0L900 86L900 86L900 171L900 171L900 257L900 257L900 343L900 343L900 429L900 429L900 514L900 514L900 600L900 600Z" fill="#1e1e1e"></path><path d="M819 600L854 600L854 514L813 514L813 429L825 429L825 343L801 343L801 257L806 257L806 171L824 171L824 86L824 86L824 0L900 0L900 86L900 86L900 171L900 171L900 257L900 257L900 343L900 343L900 429L900 429L900 514L900 514L900 600L900 600Z" fill="#191919"></path></svg>